<svg xmlns="http://www.w3.org/2000/svg" viewBox="0 0 100 100" width="36" height="36" fill="currentColor">
  <!-- Base skull shape -->
  <path d="M50,15 C35,15 25,25 25,40 C25,50 30,55 30,65 L35,80 L65,80 L70,65 C70,55 75,50 75,40 C75,25 65,15 50,15 Z" fill="#2d2d2d"/>
  
  <!-- Jaw -->
  <path d="M35,80 L40,85 L60,85 L65,80 L50,90 Z" fill="#2d2d2d"/>
  
  <!-- Eye sockets -->
  <path d="M35,45 C35,40 40,40 40,45 C40,50 35,50 35,45 Z" fill="#111"/>
  <path d="M65,45 C65,40 60,40 60,45 C60,50 65,50 65,45 Z" fill="#111"/>
  
  <!-- Glowing red eyes -->
  <circle cx="37.5" cy="45" r="3" fill="#e50914"/>
  <circle cx="62.5" cy="45" r="3" fill="#e50914"/>
  
  <!-- Nose cavity -->
  <path d="M47,55 L53,55 L50,65 Z" fill="#111"/>
  
  <!-- Teeth -->
  <path d="M40,80 L42,85 L45,80 M45,80 L47,85 L50,80 M50,80 L53,85 L55,80 M55,80 L58,85 L60,80" stroke="#eee" stroke-width="1" fill="none"/>
  
  <!-- Horns -->
  <path d="M30,30 L22,15 L27,27 Z" fill="#cc0000"/>
  <path d="M70,30 L78,15 L73,27 Z" fill="#cc0000"/>
  
  <!-- Crack details -->
  <path d="M45,35 L48,30 L50,35 L52,30 L55,35" stroke="#444" stroke-width="1" fill="none"/>
  <path d="M50,65 L50,75" stroke="#444" stroke-width="1" fill="none"/>
  <path d="M40,60 L45,65 M60,60 L55,65" stroke="#444" stroke-width="1" fill="none"/>
</svg>
