<svg xmlns="http://www.w3.org/2000/svg" viewBox="0 0 100 100" width="36" height="36" fill="currentColor">
  <path d="M50,10 C25,10 10,25 10,50 C10,70 20,90 40,90 C45,90 45,85 50,85 C60,85 75,75 85,60 C95,45 90,20 75,15 C65,12 55,10 50,10 Z" fill="#2d2d2d"/>
  
  <!-- Leaf 1 (top) -->
  <path d="M50,40 C45,30 35,30 30,35 C35,35 40,40 40,45 C35,40 30,40 25,45 C30,50 40,50 45,45 C45,50 40,60 30,65 C40,65 50,55 50,45 C50,55 60,65 70,65 C60,60 55,50 55,45 C60,50 70,50 75,45 C70,40 65,40 60,45 C60,40 65,35 70,35 C65,30 55,30 50,40 Z" fill="#3a7a5a"/>
  
  <!-- Leaf 2 (bottom left) -->
  <path d="M30,65 C25,60 20,60 15,65 C20,65 25,68 25,72 C20,68 16,68 12,72 C16,76 25,76 30,72 C30,76 25,82 20,85 C28,85 35,76 35,68 C35,76 42,85 50,85 C45,82 40,76 40,72 C45,76 54,76 58,72 C54,68 50,68 45,72 C45,68 50,65 55,65 C50,60 45,60 40,65 C35,60 35,60 30,65 Z" fill="#3a7a5a"/>
  
  <!-- Leaf stem -->
  <path d="M47,40 L53,85" stroke="#3a7a5a" stroke-width="3" fill="none"/>
  
  <!-- Small leaf elements -->
  <circle cx="30" cy="47" r="5" fill="#4a9a6a"/>
  <circle cx="50" cy="37" r="5" fill="#4a9a6a"/>
  <circle cx="70" cy="47" r="5" fill="#4a9a6a"/>
  <circle cx="60" cy="67" r="5" fill="#4a9a6a"/>
</svg>
